<svg width="55" height="55" viewBox="0 0 55 55" fill="none" xmlns="http://www.w3.org/2000/svg">
    <path fill-rule="evenodd" clip-rule="evenodd" d="M32.1961 10.7318C37.6687 16.2044 38.0884 24.8164 33.4553 30.7705C33.1801 31.1241 33.0439 31.6211 33.3608 31.9379V31.9379V31.9379C34.2165 32.7937 36.0093 32.645 36.865 33.5008L44.2576 40.8934C45.082 41.7177 45.082 43.0543 44.2576 43.8787V43.8787C43.4332 44.7031 42.0967 44.7031 41.2723 43.8787L32.3653 34.9717C32.3518 34.9582 32.3521 34.9362 32.3656 34.9227V34.9227C32.9152 34.3731 32.9152 33.482 32.3656 32.9325V32.9325C32.0699 32.6367 31.6057 32.7637 31.2871 33.0348C25.324 38.1085 16.365 37.8288 10.732 32.1959C4.8049 26.2688 4.8049 16.659 10.732 10.7318C16.6592 4.80467 26.269 4.80467 32.1961 10.7318ZM29.1298 29.1299C33.3635 24.8962 33.3635 18.0321 29.1298 13.7984C24.8961 9.56472 18.032 9.56472 13.7983 13.7984C9.56465 18.0321 9.56465 24.8962 13.7983 29.1299C18.032 33.3636 24.8961 33.3636 29.1298 29.1299Z" fill="#3BA041"/>
</svg>
